<svg xmlns="http://www.w3.org/2000/svg" viewBox="0 0 90.01 88.34"><title>&#x8D44;&#x6E90; 113</title><path d="M55.18 30.71a90.7 90.7 0 0 0-24.92 8A98.72 98.72 0 0 0 9.17 51.48c-.5.41-1.06 1-1.76.58s-.41-1.18-.29-1.82c.62-3.19 1.33-6.36 1.88-9.56.3-1.72 1.47-2.54 2.85-3.2a117.61 117.61 0 0 1 22.62-7.84 151.93 151.93 0 0 1 17.7-3.25c-.26-.54-.77-.27-1.14-.29a173.08 173.08 0 0 0-29.13 1.66 77.79 77.79 0 0 0-7.81 1.6c-2.55.59-2.91.27-2.39-2.41.63-3.27 1.21-6.55 2-9.78.38-1.61-.09-2-1.65-2.11C5.29 14.63 1.18 10.92.14 4.46-.38 1.27.54.12 3.75.11 21.83.1 39.92-.2 58 .23c9.44.23 18.44 2.72 25.37 10a23.63 23.63 0 0 1 6.37 14.07c1.27 11.56-1.65 21.88-10.35 30-6.63 6.16-14.79 9.12-23.66 10.36-5.14.72-10.3.53-15.46.52-1.79 0-2.63.55-3 2.46-1.06 5.77-2.45 11.52-3.56 17.36-.45 2.34-1.65 3.25-4 3.1-1.66-.12-3.33 0-5 0-2 0-2.46-.89-1.89-2.72a104.42 104.42 0 0 1 8.79-19.82C38 54.28 46.22 44.68 55.71 36a28.65 28.65 0 0 0-7.31 4.4C32.23 52.19 20 67.38 10.29 84.75a7.83 7.83 0 0 1-9.21 3.11c-1.23-.51-1.16-1.49-1-2.51 1-4.89 1.94-9.79 2.91-14.68.5-2.53 2.34-4.18 4-5.94a146 146 0 0 1 41-30.6c2.39-1.2 4.8-2.28 7.19-3.42z" fill="#FFFFFF"/></svg>